<svg xmlns="http://www.w3.org/2000/svg" xmlns:xlink="http://www.w3.org/1999/xlink" width="500" zoomAndPan="magnify" viewBox="0 0 375 374.999991" height="500" preserveAspectRatio="xMidYMid meet" version="1.0"><defs><clipPath id="1858685d25"><path d="M 18 320 L 75 320 L 75 369 L 18 369 Z M 18 320 " clip-rule="nonzero"/></clipPath><clipPath id="4192036014"><path d="M 107.15625 0 L 159 0 L 159 27 L 107.15625 27 Z M 107.15625 0 " clip-rule="nonzero"/></clipPath><clipPath id="3b5e8f3895"><path d="M 123 184 L 176 184 L 176 229.132812 L 123 229.132812 Z M 123 184 " clip-rule="nonzero"/></clipPath><clipPath id="ce29adfc4e"><path d="M 204 89 L 256 89 L 256 133.453125 L 204 133.453125 Z M 204 89 " clip-rule="nonzero"/></clipPath><clipPath id="b89022d287"><path d="M 284 15 L 337 15 L 337 60.382812 L 284 60.382812 Z M 284 15 " clip-rule="nonzero"/></clipPath></defs><path fill="#ff737b" d="M 28.175781 0 L 30.6875 0 L 30.6875 112.921875 L 28.175781 112.921875 Z M 28.175781 0 " fill-opacity="1" fill-rule="nonzero"/><path fill="#ff737b" d="M 48.136719 0 L 50.644531 0 L 50.644531 326.589844 L 48.136719 326.589844 Z M 48.136719 0 " fill-opacity="1" fill-rule="nonzero"/><path fill="#ff737b" d="M 77.90625 0 L 80.417969 0 L 80.417969 283.3125 L 77.90625 283.3125 Z M 77.90625 0 " fill-opacity="1" fill-rule="nonzero"/><path fill="#ff737b" d="M 93.132812 0 L 95.640625 0 L 95.640625 73.027344 L 93.132812 73.027344 Z M 93.132812 0 " fill-opacity="1" fill-rule="nonzero"/><path fill="#db1921" d="M 29.429688 110.136719 C 32.382812 104.214844 38.300781 99.871094 44.839844 98.835938 C 45.824219 98.683594 46.835938 98.601562 47.792969 98.835938 C 49.253906 99.207031 50.425781 100.261719 51.476562 101.335938 C 53.136719 103.03125 54.679688 104.902344 55.539062 107.117188 C 56.578125 109.792969 56.523438 112.75 56.464844 115.621094 C 56.433594 116.878906 56.40625 118.15625 56.085938 119.375 C 55.734375 120.695312 55.058594 121.90625 54.339844 123.066406 C 48.988281 131.773438 41.257812 138.742188 33.351562 145.222656 C 32.050781 146.292969 30.53125 147.410156 28.863281 147.183594 C 28.015625 147.070312 27.265625 146.609375 26.539062 146.148438 C 21.992188 143.238281 17.828125 139.851562 14.054688 135.992188 C 10.28125 132.128906 6.992188 127.894531 4.183594 123.28125 C 2.929688 121.21875 1.777344 119.074219 1.046875 116.773438 C 0.386719 114.636719 0.0625 112.445312 0.0742188 110.207031 C 0.0742188 108.011719 0.410156 105.707031 1.722656 103.941406 C 4.054688 100.804688 8.523438 100.40625 12.429688 100.285156 C 14.59375 100.214844 16.835938 100.160156 18.835938 100.996094 C 20.246094 101.589844 21.445312 102.585938 22.601562 103.589844 C 25.007812 105.683594 27.328125 107.871094 29.5625 110.15625 " fill-opacity="1" fill-rule="nonzero"/><g clip-path="url(#1858685d25)"><path fill="#db1921" d="M 47.359375 331.921875 C 50.304688 325.996094 56.234375 321.652344 62.769531 320.621094 C 63.753906 320.464844 64.765625 320.382812 65.726562 320.621094 C 67.183594 320.988281 68.359375 322.042969 69.410156 323.117188 C 71.066406 324.8125 72.609375 326.683594 73.46875 328.898438 C 74.507812 331.574219 74.457031 334.53125 74.394531 337.402344 C 74.367188 338.660156 74.335938 339.9375 74.015625 341.15625 C 73.667969 342.476562 72.988281 343.6875 72.273438 344.851562 C 66.921875 353.558594 59.1875 360.527344 51.28125 367.011719 C 49.980469 368.078125 48.460938 369.199219 46.796875 368.972656 C 45.945312 368.855469 45.195312 368.398438 44.46875 367.9375 C 39.921875 365.027344 35.761719 361.640625 31.984375 357.777344 C 28.210938 353.917969 24.921875 349.679688 22.113281 345.070312 C 20.863281 343.007812 19.707031 340.863281 18.980469 338.5625 C 18.316406 336.421875 17.988281 334.234375 18.003906 331.996094 C 18.003906 329.796875 18.335938 327.492188 19.648438 325.730469 C 21.984375 322.589844 26.449219 322.191406 30.355469 322.070312 C 32.519531 322.003906 34.765625 321.949219 36.761719 322.785156 C 38.175781 323.375 39.371094 324.371094 40.527344 325.375 C 42.933594 327.472656 45.253906 329.660156 47.488281 331.941406 " fill-opacity="1" fill-rule="nonzero"/></g><path fill="#df776c" d="M 50.066406 184.515625 C 53.011719 178.59375 58.941406 174.246094 65.476562 173.214844 C 66.460938 173.0625 67.472656 172.980469 68.429688 173.214844 C 69.890625 173.585938 71.0625 174.640625 72.113281 175.714844 C 73.773438 177.410156 75.3125 179.28125 76.175781 181.496094 C 77.214844 184.171875 77.160156 187.128906 77.097656 190 C 77.070312 191.257812 77.039062 192.53125 76.71875 193.753906 C 76.371094 195.074219 75.695312 196.285156 74.976562 197.441406 C 69.625 206.152344 61.890625 213.117188 53.988281 219.601562 C 52.6875 220.667969 51.167969 221.789062 49.5 221.5625 C 48.652344 221.445312 47.898438 220.988281 47.175781 220.527344 C 42.628906 217.617188 38.46875 214.230469 34.695312 210.367188 C 30.921875 206.507812 27.628906 202.273438 24.824219 197.660156 C 23.570312 195.597656 22.417969 193.457031 21.6875 191.152344 C 21.023438 189.015625 20.699219 186.828125 20.710938 184.585938 C 20.710938 182.390625 21.046875 180.085938 22.355469 178.3125 C 24.695312 175.175781 29.160156 174.777344 33.066406 174.65625 C 35.230469 174.589844 37.472656 174.535156 39.472656 175.371094 C 40.882812 175.960938 42.082031 176.957031 43.238281 177.960938 C 45.644531 180.058594 47.964844 182.246094 50.199219 184.527344 " fill-opacity="1" fill-rule="nonzero"/><path fill="#df776c" d="M 78.980469 283.621094 C 79.394531 282.8125 79.894531 282.058594 80.480469 281.367188 C 81.070312 280.675781 81.730469 280.058594 82.464844 279.519531 C 83.199219 278.984375 83.984375 278.539062 84.824219 278.183594 C 85.660156 277.832031 86.527344 277.578125 87.425781 277.429688 C 87.964844 277.34375 88.519531 277.300781 89.046875 277.429688 C 89.84375 277.628906 90.488281 278.210938 91.0625 278.800781 C 91.972656 279.726562 92.820312 280.753906 93.289062 281.960938 C 93.859375 283.429688 93.832031 285.046875 93.796875 286.621094 C 93.777344 287.3125 93.761719 288.007812 93.585938 288.679688 C 93.394531 289.402344 93.023438 290.066406 92.632812 290.703125 C 89.699219 295.472656 85.464844 299.289062 81.132812 302.84375 C 80.421875 303.429688 79.585938 304.042969 78.671875 303.917969 C 78.207031 303.855469 77.792969 303.601562 77.398438 303.351562 C 72.347656 300.117188 68.265625 295.941406 65.148438 290.824219 C 64.464844 289.691406 63.832031 288.515625 63.425781 287.253906 C 63.0625 286.082031 62.886719 284.882812 62.890625 283.65625 C 62.890625 282.453125 63.074219 281.191406 63.792969 280.226562 C 65.070312 278.503906 67.519531 278.289062 69.664062 278.222656 C 70.847656 278.183594 72.078125 278.15625 73.171875 278.613281 C 73.945312 278.9375 74.601562 279.480469 75.234375 280.03125 C 76.554688 281.179688 77.824219 282.378906 79.050781 283.628906 " fill-opacity="1" fill-rule="nonzero"/><path fill="#df776c" d="M 79.074219 138.230469 C 80.917969 134.507812 84.648438 131.777344 88.757812 131.132812 C 89.371094 131.03125 90.007812 130.980469 90.613281 131.132812 C 91.53125 131.363281 92.269531 132.027344 92.929688 132.703125 C 93.96875 133.765625 94.941406 134.941406 95.480469 136.332031 C 96.132812 138.011719 96.09375 139.871094 96.058594 141.671875 C 96.042969 142.464844 96.023438 143.269531 95.820312 144.03125 C 95.601562 144.859375 95.175781 145.621094 94.726562 146.351562 C 91.363281 151.824219 86.507812 156.199219 81.542969 160.273438 C 80.722656 160.945312 79.769531 161.648438 78.722656 161.503906 C 78.1875 161.429688 77.714844 161.144531 77.261719 160.855469 C 74.402344 159.023438 71.789062 156.898438 69.417969 154.472656 C 67.046875 152.046875 64.980469 149.386719 63.214844 146.488281 C 62.429688 145.191406 61.703125 143.84375 61.246094 142.398438 C 60.828125 141.054688 60.625 139.679688 60.632812 138.273438 C 60.632812 136.894531 60.839844 135.445312 61.664062 134.339844 C 63.128906 132.371094 65.9375 132.117188 68.394531 132.039062 C 69.75 132 71.164062 131.964844 72.417969 132.488281 C 73.308594 132.859375 74.058594 133.484375 74.785156 134.117188 C 76.296875 135.429688 77.753906 136.804688 79.15625 138.242188 " fill-opacity="1" fill-rule="nonzero"/><path fill="#db1921" d="M 94.882812 73.769531 C 98.265625 66.976562 105.0625 61.992188 112.5625 60.808594 C 113.6875 60.628906 114.851562 60.535156 115.957031 60.808594 C 117.628906 61.226562 118.976562 62.441406 120.179688 63.671875 C 122.082031 65.617188 123.855469 67.765625 124.839844 70.296875 C 126.03125 73.375 125.972656 76.757812 125.898438 80.050781 C 125.867188 81.496094 125.832031 82.957031 125.460938 84.355469 C 125.0625 85.871094 124.285156 87.257812 123.464844 88.59375 C 117.324219 98.582031 108.457031 106.574219 99.390625 114.011719 C 97.898438 115.234375 96.15625 116.523438 94.242188 116.257812 C 93.269531 116.125 92.394531 115.601562 91.574219 115.074219 C 86.359375 111.734375 81.585938 107.851562 77.257812 103.421875 C 72.925781 98.992188 69.152344 94.132812 65.933594 88.84375 C 64.496094 86.476562 63.171875 84.019531 62.335938 81.378906 C 61.574219 78.925781 61.203125 76.417969 61.214844 73.847656 C 61.214844 71.328125 61.597656 68.683594 63.101562 66.660156 C 65.78125 63.058594 70.902344 62.601562 75.390625 62.464844 C 77.875 62.386719 80.445312 62.328125 82.738281 63.285156 C 84.359375 63.960938 85.730469 65.105469 87.054688 66.257812 C 89.820312 68.660156 92.484375 71.175781 95.046875 73.800781 " fill-opacity="1" fill-rule="nonzero"/><path fill="#ff737b" d="M 151.28125 -108.367188 L 153.582031 -108.367188 L 153.582031 190.339844 L 151.28125 190.339844 Z M 151.28125 -108.367188 " fill-opacity="1" fill-rule="nonzero"/><path fill="#ff737b" d="M 178.570312 -108.367188 L 180.871094 -108.367188 L 180.871094 150.761719 L 178.570312 150.761719 Z M 178.570312 -108.367188 " fill-opacity="1" fill-rule="nonzero"/><g clip-path="url(#4192036014)"><path fill="#db1921" d="M 134.132812 -7.632812 C 136.839844 -13.050781 142.269531 -17.023438 148.261719 -17.96875 C 149.164062 -18.109375 150.089844 -18.183594 150.96875 -17.96875 C 152.304688 -17.628906 153.382812 -16.664062 154.34375 -15.679688 C 155.863281 -14.132812 157.277344 -12.417969 158.066406 -10.394531 C 159.019531 -7.945312 158.972656 -5.242188 158.914062 -2.617188 C 158.886719 -1.464844 158.859375 -0.300781 158.566406 0.816406 C 158.246094 2.023438 157.625 3.132812 156.96875 4.191406 C 152.0625 12.15625 144.976562 18.527344 137.730469 24.457031 C 136.539062 25.433594 135.144531 26.460938 133.617188 26.25 C 132.839844 26.144531 132.148438 25.726562 131.484375 25.304688 C 127.316406 22.640625 123.503906 19.546875 120.042969 16.015625 C 116.582031 12.484375 113.566406 8.609375 110.992188 4.390625 C 109.84375 2.503906 108.789062 0.542969 108.121094 -1.5625 C 107.511719 -3.519531 107.214844 -5.519531 107.226562 -7.566406 C 107.226562 -9.578125 107.535156 -11.6875 108.734375 -13.300781 C 110.875 -16.167969 114.96875 -16.535156 118.550781 -16.644531 C 120.535156 -16.707031 122.59375 -16.757812 124.425781 -15.992188 C 125.71875 -15.453125 126.816406 -14.539062 127.875 -13.621094 C 130.082031 -11.707031 132.207031 -9.703125 134.257812 -7.617188 " fill-opacity="1" fill-rule="nonzero"/></g><g clip-path="url(#3b5e8f3895)"><path fill="#db1921" d="M 150.570312 195.21875 C 153.269531 189.800781 158.703125 185.824219 164.695312 184.882812 C 165.597656 184.742188 166.523438 184.664062 167.402344 184.882812 C 168.742188 185.21875 169.816406 186.183594 170.78125 187.167969 C 172.300781 188.71875 173.714844 190.429688 174.503906 192.453125 C 175.453125 194.902344 175.40625 197.605469 175.351562 200.230469 C 175.324219 201.382812 175.296875 202.550781 175.003906 203.664062 C 174.683594 204.875 174.0625 205.980469 173.40625 207.046875 C 168.5 215.011719 161.410156 221.382812 154.164062 227.3125 C 152.972656 228.289062 151.578125 229.3125 150.050781 229.105469 C 149.273438 229 148.585938 228.582031 147.921875 228.160156 C 143.75 225.496094 139.9375 222.398438 136.476562 218.867188 C 133.019531 215.335938 130.003906 211.460938 127.429688 207.242188 C 126.28125 205.355469 125.222656 203.394531 124.554688 201.292969 C 123.945312 199.335938 123.648438 197.335938 123.660156 195.285156 C 123.660156 193.277344 123.964844 191.167969 125.167969 189.554688 C 127.3125 186.683594 131.402344 186.320312 134.984375 186.210938 C 136.96875 186.148438 139.023438 186.097656 140.855469 186.863281 C 142.148438 187.402344 143.25 188.3125 144.304688 189.234375 C 146.511719 191.148438 148.640625 193.152344 150.6875 195.238281 " fill-opacity="1" fill-rule="nonzero"/></g><path fill="#df776c" d="M 153.050781 60.398438 C 155.75 54.980469 161.183594 51.003906 167.175781 50.0625 C 168.078125 49.917969 169.007812 49.84375 169.886719 50.0625 C 171.222656 50.398438 172.296875 51.363281 173.261719 52.347656 C 174.78125 53.894531 176.195312 55.609375 176.984375 57.632812 C 177.933594 60.082031 177.886719 62.789062 177.828125 65.410156 C 177.804688 66.5625 177.777344 67.730469 177.480469 68.84375 C 177.164062 70.054688 176.542969 71.160156 175.886719 72.21875 C 170.976562 80.183594 163.890625 86.558594 156.644531 92.488281 C 155.453125 93.464844 154.058594 94.488281 152.53125 94.28125 C 151.753906 94.175781 151.0625 93.757812 150.398438 93.335938 C 146.230469 90.671875 142.417969 87.574219 138.960938 84.042969 C 135.5 80.511719 132.484375 76.636719 129.914062 72.417969 C 128.765625 70.53125 127.707031 68.574219 127.039062 66.46875 C 126.429688 64.511719 126.132812 62.507812 126.144531 60.460938 C 126.144531 58.453125 126.449219 56.34375 127.652344 54.722656 C 129.796875 51.855469 133.886719 51.492188 137.46875 51.378906 C 139.453125 51.320312 141.507812 51.265625 143.339844 52.035156 C 144.632812 52.570312 145.730469 53.484375 146.789062 54.402344 C 148.996094 56.320312 151.125 58.320312 153.171875 60.40625 " fill-opacity="1" fill-rule="nonzero"/><path fill="#df776c" d="M 179.554688 151.042969 C 179.933594 150.300781 180.390625 149.613281 180.929688 148.980469 C 181.46875 148.347656 182.078125 147.78125 182.75 147.292969 C 183.421875 146.800781 184.140625 146.390625 184.910156 146.070312 C 185.675781 145.746094 186.472656 145.515625 187.296875 145.378906 C 187.789062 145.300781 188.296875 145.261719 188.78125 145.378906 C 189.511719 145.5625 190.105469 146.09375 190.628906 146.632812 C 191.464844 147.480469 192.242188 148.417969 192.671875 149.523438 C 193.191406 150.867188 193.167969 152.347656 193.132812 153.785156 C 193.121094 154.417969 193.105469 155.054688 192.941406 155.667969 C 192.769531 156.328125 192.425781 156.933594 192.070312 157.519531 C 189.378906 161.882812 185.496094 165.375 181.527344 168.621094 C 180.875 169.15625 180.109375 169.71875 179.273438 169.605469 C 178.847656 169.546875 178.464844 169.316406 178.105469 169.085938 C 173.476562 166.128906 169.734375 162.3125 166.878906 157.628906 C 166.246094 156.59375 165.667969 155.519531 165.296875 154.367188 C 164.964844 153.292969 164.800781 152.195312 164.808594 151.074219 C 164.808594 149.972656 164.976562 148.820312 165.632812 147.933594 C 166.804688 146.359375 169.050781 146.164062 171.011719 146.101562 C 172.101562 146.070312 173.226562 146.042969 174.230469 146.460938 C 174.9375 146.757812 175.542969 147.253906 176.121094 147.757812 C 177.328125 148.808594 178.496094 149.90625 179.617188 151.050781 " fill-opacity="1" fill-rule="nonzero"/><path fill="#df776c" d="M 179.640625 18.0625 C 181.332031 14.660156 184.75 12.160156 188.515625 11.570312 C 189.078125 11.480469 189.664062 11.433594 190.21875 11.570312 C 191.058594 11.78125 191.734375 12.386719 192.339844 13.007812 C 193.292969 13.980469 194.183594 15.054688 194.679688 16.324219 C 195.273438 17.863281 195.242188 19.5625 195.210938 21.210938 C 195.195312 21.933594 195.175781 22.671875 194.992188 23.367188 C 194.792969 24.125 194.398438 24.820312 193.988281 25.492188 C 190.90625 30.492188 186.453125 34.496094 181.902344 38.222656 C 181.152344 38.835938 180.277344 39.480469 179.316406 39.347656 C 178.828125 39.28125 178.394531 39.019531 177.976562 38.753906 C 172.671875 35.363281 168.378906 30.984375 165.105469 25.613281 C 164.382812 24.429688 163.71875 23.199219 163.300781 21.875 C 162.917969 20.648438 162.730469 19.390625 162.734375 18.101562 C 162.734375 16.839844 162.925781 15.515625 163.683594 14.503906 C 165.027344 12.703125 167.597656 12.46875 169.851562 12.402344 C 171.09375 12.363281 172.390625 12.332031 173.539062 12.8125 C 174.355469 13.148438 175.042969 13.722656 175.707031 14.300781 C 177.09375 15.5 178.429688 16.757812 179.71875 18.074219 " fill-opacity="1" fill-rule="nonzero"/><path fill="#ff737b" d="M 231.625 -204.046875 L 233.925781 -204.046875 L 233.925781 94.660156 L 231.625 94.660156 Z M 231.625 -204.046875 " fill-opacity="1" fill-rule="nonzero"/><path fill="#ff737b" d="M 258.914062 -204.046875 L 261.214844 -204.046875 L 261.214844 55.082031 L 258.914062 55.082031 Z M 258.914062 -204.046875 " fill-opacity="1" fill-rule="nonzero"/><g clip-path="url(#ce29adfc4e)"><path fill="#db1921" d="M 230.914062 99.539062 C 233.613281 94.121094 239.046875 90.144531 245.039062 89.203125 C 245.941406 89.0625 246.867188 88.984375 247.746094 89.203125 C 249.085938 89.539062 250.160156 90.503906 251.125 91.488281 C 252.644531 93.039062 254.058594 94.75 254.847656 96.773438 C 255.796875 99.222656 255.75 101.925781 255.695312 104.550781 C 255.667969 105.703125 255.640625 106.871094 255.347656 107.984375 C 255.027344 109.195312 254.40625 110.300781 253.75 111.367188 C 248.84375 119.332031 241.753906 125.703125 234.507812 131.632812 C 233.316406 132.609375 231.921875 133.632812 230.394531 133.425781 C 229.617188 133.320312 228.929688 132.902344 228.265625 132.480469 C 224.09375 129.816406 220.28125 126.71875 216.820312 123.1875 C 213.363281 119.65625 210.347656 115.78125 207.773438 111.566406 C 206.625 109.679688 205.566406 107.71875 204.898438 105.613281 C 204.289062 103.65625 203.992188 101.65625 204.003906 99.605469 C 204.003906 97.597656 204.308594 95.488281 205.511719 93.875 C 207.65625 91.003906 211.746094 90.640625 215.328125 90.53125 C 217.3125 90.46875 219.367188 90.417969 221.199219 91.183594 C 222.492188 91.722656 223.59375 92.632812 224.648438 93.554688 C 226.855469 95.46875 228.984375 97.472656 231.03125 99.558594 " fill-opacity="1" fill-rule="nonzero"/></g><path fill="#df776c" d="M 259.898438 55.363281 C 260.277344 54.621094 260.734375 53.933594 261.273438 53.300781 C 261.8125 52.667969 262.421875 52.105469 263.09375 51.613281 C 263.765625 51.121094 264.484375 50.710938 265.253906 50.390625 C 266.019531 50.066406 266.816406 49.835938 267.640625 49.699219 C 268.132812 49.621094 268.640625 49.582031 269.125 49.699219 C 269.855469 49.882812 270.449219 50.414062 270.972656 50.953125 C 271.808594 51.800781 272.585938 52.738281 273.015625 53.84375 C 273.535156 55.1875 273.511719 56.667969 273.476562 58.105469 C 273.464844 58.738281 273.449219 59.375 273.285156 59.988281 C 273.113281 60.648438 272.769531 61.253906 272.414062 61.839844 C 269.722656 66.203125 265.839844 69.695312 261.871094 72.941406 C 261.21875 73.480469 260.453125 74.039062 259.617188 73.925781 C 259.191406 73.867188 258.808594 73.636719 258.449219 73.40625 C 253.820312 70.449219 250.078125 66.632812 247.222656 61.949219 C 246.589844 60.914062 246.011719 59.839844 245.640625 58.6875 C 245.308594 57.613281 245.144531 56.515625 245.152344 55.394531 C 245.152344 54.292969 245.320312 53.140625 245.976562 52.253906 C 247.148438 50.679688 249.394531 50.484375 251.355469 50.421875 C 252.445312 50.390625 253.570312 50.363281 254.574219 50.78125 C 255.28125 51.078125 255.886719 51.574219 256.464844 52.078125 C 257.671875 53.128906 258.839844 54.226562 259.960938 55.371094 " fill-opacity="1" fill-rule="nonzero"/><path fill="#ff737b" d="M 312.492188 -277.117188 L 314.789062 -277.117188 L 314.789062 21.589844 L 312.492188 21.589844 Z M 312.492188 -277.117188 " fill-opacity="1" fill-rule="nonzero"/><g clip-path="url(#b89022d287)"><path fill="#db1921" d="M 311.777344 26.46875 C 314.476562 21.050781 319.910156 17.074219 325.90625 16.132812 C 326.808594 15.992188 327.734375 15.914062 328.613281 16.132812 C 329.949219 16.46875 331.027344 17.433594 331.988281 18.417969 C 333.507812 19.96875 334.921875 21.679688 335.710938 23.703125 C 336.664062 26.152344 336.613281 28.855469 336.558594 31.480469 C 336.53125 32.632812 336.503906 33.800781 336.210938 34.914062 C 335.890625 36.125 335.269531 37.230469 334.613281 38.296875 C 329.707031 46.261719 322.621094 52.632812 315.375 58.5625 C 314.183594 59.539062 312.789062 60.5625 311.261719 60.355469 C 310.484375 60.25 309.792969 59.832031 309.128906 59.410156 C 304.960938 56.746094 301.144531 53.648438 297.6875 50.117188 C 294.226562 46.585938 291.210938 42.710938 288.636719 38.492188 C 287.488281 36.605469 286.433594 34.644531 285.761719 32.542969 C 285.15625 30.585938 284.855469 28.585938 284.867188 26.535156 C 284.867188 24.527344 285.175781 22.417969 286.375 20.804688 C 288.519531 17.933594 292.609375 17.570312 296.191406 17.460938 C 298.175781 17.398438 300.234375 17.347656 302.066406 18.113281 C 303.359375 18.652344 304.457031 19.5625 305.515625 20.484375 C 307.722656 22.398438 309.847656 24.402344 311.898438 26.488281 " fill-opacity="1" fill-rule="nonzero"/></g><path fill="#df776c" d="M 340.761719 -17.707031 C 341.140625 -18.449219 341.601562 -19.136719 342.140625 -19.769531 C 342.679688 -20.402344 343.285156 -20.96875 343.957031 -21.457031 C 344.628906 -21.949219 345.351562 -22.359375 346.117188 -22.679688 C 346.886719 -23.003906 347.679688 -23.234375 348.503906 -23.371094 C 348.996094 -23.449219 349.503906 -23.488281 349.988281 -23.371094 C 350.722656 -23.1875 351.3125 -22.65625 351.839844 -22.117188 C 352.671875 -21.269531 353.449219 -20.332031 353.878906 -19.226562 C 354.398438 -17.882812 354.375 -16.402344 354.34375 -14.964844 C 354.328125 -14.332031 354.3125 -13.695312 354.152344 -13.082031 C 353.976562 -12.421875 353.636719 -11.816406 353.277344 -11.230469 C 350.589844 -6.867188 346.707031 -3.375 342.738281 -0.128906 C 342.082031 0.40625 341.320312 0.96875 340.480469 0.855469 C 340.054688 0.796875 339.675781 0.566406 339.3125 0.335938 C 334.683594 -2.621094 330.941406 -6.4375 328.085938 -11.121094 C 327.457031 -12.15625 326.878906 -13.230469 326.507812 -14.382812 C 326.171875 -15.457031 326.007812 -16.554688 326.015625 -17.675781 C 326.015625 -18.777344 326.183594 -19.929688 326.84375 -20.816406 C 328.011719 -22.390625 330.257812 -22.585938 332.222656 -22.648438 C 333.308594 -22.679688 334.433594 -22.707031 335.4375 -22.289062 C 336.148438 -21.992188 336.75 -21.496094 337.328125 -20.992188 C 338.539062 -19.941406 339.703125 -18.84375 340.828125 -17.699219 " fill-opacity="1" fill-rule="nonzero"/></svg>