<svg xmlns="http://www.w3.org/2000/svg" xmlns:xlink="http://www.w3.org/1999/xlink" width="500" zoomAndPan="magnify" viewBox="0 0 375 374.999991" height="500" preserveAspectRatio="xMidYMid meet" version="1.0"><path fill="#fa8ca1" d="M 151.78125 132.304688 L 148.539062 129.488281 L 11.65625 10.71875 C 11.480469 10.605469 11.296875 10.507812 11.105469 10.425781 L 10.8125 10.425781 C 10.609375 10.402344 10.402344 10.402344 10.195312 10.425781 C 10.132812 10.4375 10.070312 10.4375 10.007812 10.425781 L 9.902344 10.425781 C 9.734375 10.441406 9.566406 10.476562 9.40625 10.53125 L 9.183594 10.53125 C 9.03125 10.609375 8.886719 10.699219 8.753906 10.804688 L 8.597656 10.941406 C 8.464844 11.082031 8.351562 11.238281 8.257812 11.40625 C 8.25 11.445312 8.25 11.488281 8.257812 11.527344 L 8.257812 11.648438 C 8.171875 11.828125 8.109375 12.019531 8.066406 12.214844 L 8.066406 12.523438 L 0.617188 186.453125 C 0.59375 186.957031 0.710938 187.425781 0.964844 187.863281 C 1.222656 188.300781 1.574219 188.628906 2.027344 188.855469 C 2.359375 189.023438 2.714844 189.117188 3.089844 189.132812 C 3.734375 189.164062 4.308594 188.976562 4.804688 188.566406 L 44.796875 156.699219 C 44.882812 156.699219 44.933594 156.542969 45.019531 156.476562 L 45.226562 156.253906 C 45.332031 156.109375 45.417969 155.957031 45.484375 155.789062 C 45.527344 155.734375 45.570312 155.675781 45.605469 155.617188 L 57.621094 125.023438 L 87.878906 140.054688 C 87.980469 140.097656 88.082031 140.128906 88.1875 140.15625 L 88.324219 140.15625 C 88.515625 140.183594 88.703125 140.183594 88.890625 140.15625 L 89.234375 140.15625 L 148.347656 136.722656 L 150.324219 136.601562 C 150.847656 136.578125 151.316406 136.40625 151.738281 136.09375 C 152.15625 135.777344 152.453125 135.371094 152.621094 134.875 C 152.792969 134.378906 152.808594 133.878906 152.671875 133.371094 C 152.535156 132.867188 152.265625 132.441406 151.867188 132.101562 Z M 151.78125 132.304688 " fill-opacity="1" fill-rule="nonzero"/><path fill="#231f20" d="M 154.855469 116.261719 L 10.09375 0.242188 C 9.914062 0.128906 9.726562 0.0351562 9.527344 -0.0351562 L 9.234375 -0.0351562 C 9.027344 -0.0585938 8.824219 -0.0585938 8.617188 -0.0351562 L 8.308594 -0.0351562 C 8.136719 -0.0117188 7.972656 0.03125 7.808594 0.0859375 L 7.585938 0.0859375 C 7.4375 0.167969 7.300781 0.265625 7.175781 0.378906 C 7.125 0.417969 7.078125 0.464844 7.039062 0.515625 C 6.902344 0.660156 6.792969 0.820312 6.710938 0.996094 L 6.710938 1.21875 C 6.640625 1.40625 6.59375 1.601562 6.574219 1.804688 C 6.566406 1.839844 6.566406 1.871094 6.574219 1.90625 L 6.574219 176.078125 C 6.574219 176.582031 6.707031 177.046875 6.980469 177.472656 C 7.25 177.898438 7.613281 178.214844 8.074219 178.425781 C 8.53125 178.636719 9.011719 178.707031 9.507812 178.636719 C 10.007812 178.566406 10.449219 178.363281 10.832031 178.035156 L 48.882812 144.8125 C 48.957031 144.742188 49.023438 144.667969 49.089844 144.589844 L 49.296875 144.347656 C 49.390625 144.199219 49.46875 144.046875 49.535156 143.882812 C 49.578125 143.832031 49.613281 143.777344 49.636719 143.710938 L 60.46875 112.671875 L 91.363281 126.414062 L 91.671875 126.515625 L 91.828125 126.515625 C 92.015625 126.535156 92.207031 126.535156 92.394531 126.515625 L 92.667969 126.515625 L 153.566406 120.640625 C 154.085938 120.589844 154.550781 120.394531 154.953125 120.058594 C 155.355469 119.726562 155.632812 119.304688 155.78125 118.804688 C 155.882812 118.328125 155.847656 117.859375 155.679688 117.402344 C 155.511719 116.941406 155.238281 116.5625 154.855469 116.261719 Z M 60.882812 107.210938 L 24.390625 29.90625 L 85.011719 118.015625 Z M 47.492188 134.214844 L 18.863281 30.320312 L 56.160156 109.339844 Z M 11.054688 170.648438 L 11.054688 21.300781 L 44.300781 141.976562 Z M 93.613281 121.433594 L 20.578125 15.289062 L 146.753906 116.398438 Z M 93.613281 121.433594 " fill-opacity="1" fill-rule="nonzero"/><path fill="#231f20" d="M 336.039062 352.597656 L 335.867188 352.050781 C 329.925781 332.261719 319.097656 317.074219 305.398438 309.308594 C 290.382812 300.722656 272.496094 299.089844 256.894531 298.144531 C 223.992188 296.167969 192.527344 292.714844 169.476562 273.734375 C 180.394531 274.730469 190.914062 274.800781 199.582031 274.851562 L 203.632812 274.851562 C 213.710938 274.953125 232.46875 275.125 240.039062 263 C 245.632812 254.066406 243.472656 241.320312 234.890625 233.96875 L 234.613281 233.726562 C 231.339844 230.742188 227.5625 228.671875 223.285156 227.507812 C 210.019531 223.609375 196.941406 227.507812 188.136719 231.511719 C 188.875 228.171875 189.21875 224.792969 189.164062 221.375 C 188.941406 209.695312 185.730469 201.226562 179.808594 196.210938 C 173.890625 191.191406 164.792969 189.253906 156.019531 190.953125 C 148.039062 192.5 141.585938 196.863281 138.308594 202.976562 C 132.917969 213.007812 134.050781 227.421875 141.601562 244.667969 C 145.054688 252.578125 149.511719 259.875 154.972656 266.554688 C 137.277344 263.117188 120.457031 256.160156 111.15625 241.371094 C 106.003906 233.261719 105.800781 226.890625 105.457031 218.058594 C 105.25 204.867188 103.042969 192.015625 98.832031 179.511719 C 93.992188 164.695312 87.292969 150.773438 78.730469 137.75 C 78.542969 137.464844 78.308594 137.226562 78.027344 137.035156 C 77.742188 136.84375 77.433594 136.710938 77.097656 136.644531 C 76.765625 136.574219 76.429688 136.570312 76.09375 136.636719 C 75.757812 136.699219 75.445312 136.824219 75.160156 137.011719 C 74.875 137.203125 74.636719 137.4375 74.445312 137.71875 C 74.253906 138.003906 74.121094 138.3125 74.054688 138.648438 C 73.984375 138.980469 73.980469 139.316406 74.046875 139.652344 C 74.109375 139.988281 74.234375 140.300781 74.421875 140.585938 C 82.742188 153.21875 89.246094 166.726562 93.9375 181.109375 C 97.992188 193.15625 100.117188 205.539062 100.308594 218.25 C 100.683594 227.523438 100.957031 234.84375 106.792969 244.121094 C 118.261719 262.34375 139.40625 269.699219 160.585938 272.703125 C 185.25 297.097656 220.042969 301.097656 256.515625 303.296875 C 271.535156 304.191406 288.734375 305.824219 302.859375 313.792969 C 315.390625 320.90625 325.359375 335.007812 330.921875 353.542969 L 331.109375 354.164062 C 333.003906 360.171875 334.191406 366.316406 334.679688 372.59375 C 334.707031 372.917969 334.789062 373.226562 334.925781 373.515625 C 335.066406 373.808594 335.257812 374.0625 335.492188 374.285156 C 335.730469 374.503906 336 374.671875 336.300781 374.789062 C 336.601562 374.90625 336.914062 374.964844 337.238281 374.964844 L 337.445312 374.964844 C 337.785156 374.9375 338.105469 374.84375 338.410156 374.691406 C 338.710938 374.535156 338.972656 374.328125 339.195312 374.070312 C 339.417969 373.808594 339.582031 373.519531 339.6875 373.195312 C 339.796875 372.871094 339.835938 372.539062 339.8125 372.199219 C 339.304688 365.523438 338.046875 358.988281 336.039062 352.597656 Z M 146.390625 242.660156 C 141.585938 231.699219 137.070312 216.34375 142.960938 205.484375 C 145.5 200.761719 150.664062 197.34375 157.121094 196.089844 C 164.414062 194.699219 171.878906 196.277344 176.617188 200.246094 C 181.355469 204.214844 183.945312 211.429688 184.136719 221.5625 C 184.210938 226.441406 183.382812 231.160156 181.648438 235.71875 C 181.453125 236.226562 181.421875 236.742188 181.558594 237.269531 C 181.691406 237.796875 181.960938 238.238281 182.375 238.589844 C 182.785156 238.945312 183.261719 239.148438 183.800781 239.203125 C 184.339844 239.253906 184.847656 239.148438 185.320312 238.878906 C 192.753906 234.671875 207.375 228.246094 221.964844 232.542969 C 225.503906 233.496094 228.621094 235.214844 231.320312 237.695312 L 231.628906 237.953125 C 238.203125 243.691406 240.003906 253.53125 235.730469 260.371094 C 229.671875 270.042969 212.800781 269.886719 203.71875 269.800781 L 199.667969 269.800781 C 187.417969 269.902344 175.207031 269.238281 163.042969 267.808594 C 155.996094 260.390625 150.445312 251.988281 146.390625 242.589844 Z M 146.390625 242.660156 " fill-opacity="1" fill-rule="nonzero"/><path fill="#231f20" d="M 272.015625 313.929688 C 271.847656 313.902344 271.683594 313.910156 271.515625 313.949219 C 271.351562 313.984375 271.199219 314.054688 271.0625 314.152344 C 270.925781 314.25 270.808594 314.371094 270.71875 314.515625 C 270.628906 314.65625 270.570312 314.8125 270.539062 314.980469 C 270.511719 315.148438 270.519531 315.316406 270.558594 315.484375 C 270.597656 315.652344 270.664062 315.804688 270.765625 315.945312 C 270.863281 316.085938 270.988281 316.199219 271.132812 316.292969 C 271.277344 316.382812 271.433594 316.445312 271.601562 316.472656 C 273.105469 316.710938 274.597656 317.007812 276.074219 317.371094 C 277.550781 317.730469 279.011719 318.152344 280.453125 318.636719 C 281.898438 319.121094 283.316406 319.664062 284.714844 320.265625 C 286.109375 320.867188 287.480469 321.527344 288.824219 322.246094 C 290.164062 322.960938 291.472656 323.734375 292.75 324.5625 C 294.027344 325.386719 295.269531 326.265625 296.472656 327.199219 C 297.675781 328.128906 298.839844 329.105469 299.960938 330.136719 C 301.085938 331.164062 302.164062 332.238281 303.195312 333.355469 C 304.226562 334.472656 305.210938 335.632812 306.144531 336.832031 C 307.082031 338.035156 307.964844 339.269531 308.796875 340.546875 C 309.628906 341.820312 310.40625 343.128906 311.128906 344.46875 C 311.851562 345.808594 312.519531 347.175781 313.125 348.570312 C 313.734375 349.964844 314.285156 351.382812 314.773438 352.824219 C 315.261719 354.265625 315.691406 355.726562 316.058594 357.203125 C 316.429688 358.679688 316.734375 360.171875 316.976562 361.671875 C 317.21875 363.175781 317.398438 364.6875 317.515625 366.203125 C 317.527344 366.367188 317.570312 366.523438 317.640625 366.667969 C 317.710938 366.816406 317.804688 366.945312 317.925781 367.054688 C 318.042969 367.164062 318.179688 367.25 318.332031 367.308594 C 318.484375 367.363281 318.640625 367.394531 318.804688 367.390625 L 318.90625 367.390625 C 319.078125 367.375 319.242188 367.332031 319.394531 367.253906 C 319.546875 367.175781 319.679688 367.070312 319.789062 366.941406 C 319.898438 366.808594 319.980469 366.664062 320.035156 366.5 C 320.085938 366.335938 320.105469 366.167969 320.09375 366 C 319.96875 364.410156 319.78125 362.828125 319.527344 361.253906 C 319.273438 359.679688 318.953125 358.121094 318.566406 356.574219 C 318.183594 355.027344 317.734375 353.5 317.222656 351.992188 C 316.707031 350.484375 316.132812 348.996094 315.496094 347.535156 C 314.859375 346.074219 314.164062 344.644531 313.40625 343.242188 C 312.652344 341.839844 311.835938 340.46875 310.964844 339.136719 C 310.09375 337.800781 309.171875 336.507812 308.191406 335.25 C 307.210938 333.992188 306.183594 332.777344 305.101562 331.609375 C 304.019531 330.4375 302.894531 329.3125 301.71875 328.238281 C 300.542969 327.160156 299.328125 326.136719 298.066406 325.160156 C 296.804688 324.1875 295.507812 323.265625 294.171875 322.402344 C 292.832031 321.535156 291.460938 320.726562 290.058594 319.976562 C 288.652344 319.226562 287.21875 318.535156 285.757812 317.902344 C 284.292969 317.273438 282.808594 316.703125 281.296875 316.199219 C 279.789062 315.691406 278.261719 315.25 276.710938 314.871094 C 275.164062 314.492188 273.605469 314.179688 272.03125 313.929688 Z M 272.015625 313.929688 " fill-opacity="1" fill-rule="nonzero"/><path fill="#231f20" d="M 89.234375 228.710938 C 88.566406 224.929688 88.308594 221.121094 88.464844 217.285156 C 88.601562 212.140625 88.292969 207.023438 87.535156 201.929688 C 86.421875 194.441406 84.417969 187.199219 81.527344 180.199219 C 81.464844 180.039062 81.371094 179.902344 81.246094 179.78125 C 81.125 179.660156 80.984375 179.566406 80.828125 179.5 C 80.667969 179.4375 80.503906 179.402344 80.332031 179.402344 C 80.160156 179.402344 79.996094 179.4375 79.839844 179.503906 C 79.679688 179.570312 79.539062 179.664062 79.417969 179.785156 C 79.300781 179.90625 79.207031 180.046875 79.140625 180.207031 C 79.074219 180.363281 79.042969 180.527344 79.042969 180.699219 C 79.042969 180.871094 79.078125 181.039062 79.144531 181.195312 C 81.980469 188.015625 83.957031 195.074219 85.066406 202.375 C 85.796875 207.335938 86.09375 212.324219 85.957031 217.339844 C 85.804688 221.347656 86.078125 225.328125 86.78125 229.277344 C 88.753906 239.1875 94.4375 248.636719 103.707031 257.347656 C 103.828125 257.464844 103.964844 257.554688 104.125 257.621094 C 104.28125 257.683594 104.445312 257.714844 104.613281 257.714844 C 104.785156 257.714844 104.949219 257.683594 105.105469 257.621094 C 105.261719 257.554688 105.402344 257.464844 105.523438 257.347656 C 105.644531 257.226562 105.738281 257.085938 105.804688 256.929688 C 105.867188 256.769531 105.902344 256.605469 105.902344 256.4375 C 105.902344 256.265625 105.867188 256.101562 105.804688 255.945312 C 105.738281 255.785156 105.644531 255.644531 105.523438 255.527344 C 96.597656 247.058594 91.175781 238.089844 89.234375 228.710938 Z M 89.234375 228.710938 " fill-opacity="1" fill-rule="nonzero"/><path fill="#fa8ca1" d="M 116.542969 165.390625 C 116.328125 165.011719 116.078125 164.660156 115.796875 164.332031 C 115.511719 164.003906 115.199219 163.703125 114.855469 163.4375 C 114.511719 163.171875 114.148438 162.941406 113.757812 162.746094 C 113.371094 162.550781 112.964844 162.394531 112.546875 162.28125 C 112.128906 162.164062 111.703125 162.09375 111.269531 162.0625 C 110.835938 162.03125 110.40625 162.042969 109.972656 162.097656 C 109.542969 162.152344 109.121094 162.246094 108.707031 162.382812 C 108.296875 162.519531 107.902344 162.699219 107.523438 162.914062 C 107.148438 163.128906 106.792969 163.378906 106.464844 163.664062 C 106.140625 163.949219 105.839844 164.261719 105.574219 164.605469 C 105.308594 164.949219 105.078125 165.316406 104.886719 165.703125 C 104.691406 166.09375 104.539062 166.496094 104.421875 166.917969 C 104.308594 167.335938 104.234375 167.761719 104.207031 168.195312 C 104.175781 168.628906 104.1875 169.0625 104.242188 169.492188 C 104.296875 169.925781 104.394531 170.347656 104.53125 170.757812 C 104.671875 171.171875 104.847656 171.566406 105.0625 171.941406 C 105.277344 172.320312 105.527344 172.671875 105.8125 173 C 106.097656 173.328125 106.414062 173.625 106.757812 173.890625 C 107.101562 174.15625 107.46875 174.386719 107.855469 174.582031 C 108.246094 174.773438 108.648438 174.925781 109.070312 175.042969 C 109.488281 175.15625 109.914062 175.226562 110.347656 175.257812 C 110.78125 175.285156 111.210938 175.273438 111.644531 175.21875 C 112.074219 175.160156 112.496094 175.066406 112.90625 174.925781 C 113.320312 174.789062 113.710938 174.609375 114.089844 174.394531 C 114.464844 174.175781 114.816406 173.925781 115.140625 173.644531 C 115.46875 173.359375 115.761719 173.042969 116.027344 172.703125 C 116.292969 172.359375 116.519531 171.996094 116.710938 171.605469 C 116.90625 171.21875 117.058594 170.816406 117.171875 170.398438 C 117.285156 169.980469 117.359375 169.558594 117.390625 169.125 C 117.421875 168.691406 117.410156 168.261719 117.355469 167.832031 C 117.300781 167.402344 117.207031 166.984375 117.070312 166.574219 C 116.933594 166.160156 116.757812 165.769531 116.542969 165.390625 Z M 116.542969 165.390625 " fill-opacity="1" fill-rule="nonzero"/><path fill="#fa8ca1" d="M 109.335938 186.863281 C 108.957031 187.078125 108.605469 187.328125 108.277344 187.613281 C 107.949219 187.898438 107.652344 188.210938 107.386719 188.554688 C 107.121094 188.898438 106.890625 189.261719 106.695312 189.652344 C 106.5 190.039062 106.347656 190.441406 106.230469 190.863281 C 106.117188 191.28125 106.042969 191.707031 106.011719 192.140625 C 105.980469 192.574219 105.992188 193.003906 106.046875 193.4375 C 106.101562 193.867188 106.195312 194.289062 106.335938 194.699219 C 106.472656 195.113281 106.648438 195.507812 106.863281 195.882812 C 107.078125 196.261719 107.324219 196.613281 107.609375 196.941406 C 107.894531 197.269531 108.207031 197.570312 108.550781 197.835938 C 108.894531 198.101562 109.257812 198.332031 109.648438 198.527344 C 110.035156 198.71875 110.4375 198.875 110.855469 198.988281 C 111.273438 199.105469 111.699219 199.175781 112.132812 199.207031 C 112.566406 199.238281 112.996094 199.226562 113.429688 199.175781 C 113.859375 199.121094 114.28125 199.023438 114.691406 198.886719 C 115.101562 198.75 115.496094 198.574219 115.875 198.359375 C 116.25 198.144531 116.605469 197.894531 116.933594 197.609375 C 117.261719 197.324219 117.558594 197.011719 117.824219 196.667969 C 118.089844 196.324219 118.320312 195.960938 118.515625 195.570312 C 118.707031 195.183594 118.863281 194.78125 118.976562 194.359375 C 119.09375 193.941406 119.164062 193.515625 119.195312 193.082031 C 119.226562 192.648438 119.214844 192.21875 119.160156 191.785156 C 119.105469 191.355469 119.011719 190.933594 118.875 190.523438 C 118.738281 190.109375 118.5625 189.714844 118.347656 189.339844 C 118.128906 188.960938 117.878906 188.609375 117.597656 188.28125 C 117.3125 187.957031 116.996094 187.660156 116.65625 187.394531 C 116.3125 187.128906 115.945312 186.898438 115.558594 186.703125 C 115.171875 186.507812 114.769531 186.355469 114.351562 186.242188 C 113.933594 186.125 113.507812 186.054688 113.074219 186.023438 C 112.640625 185.992188 112.210938 186 111.78125 186.054688 C 111.351562 186.109375 110.929688 186.203125 110.519531 186.339844 C 110.105469 186.476562 109.710938 186.652344 109.335938 186.863281 Z M 109.335938 186.863281 " fill-opacity="1" fill-rule="nonzero"/><path fill="#fa8ca1" d="M 125.28125 174.082031 C 124.902344 174.296875 124.550781 174.546875 124.222656 174.832031 C 123.890625 175.117188 123.59375 175.429688 123.328125 175.773438 C 123.0625 176.117188 122.832031 176.484375 122.636719 176.871094 C 122.441406 177.261719 122.285156 177.664062 122.171875 178.082031 C 122.058594 178.503906 121.984375 178.929688 121.953125 179.363281 C 121.921875 179.796875 121.933594 180.226562 121.988281 180.660156 C 122.042969 181.089844 122.136719 181.511719 122.273438 181.925781 C 122.410156 182.335938 122.589844 182.734375 122.804688 183.109375 C 123.019531 183.488281 123.269531 183.839844 123.554688 184.167969 C 123.835938 184.496094 124.152344 184.792969 124.496094 185.0625 C 124.839844 185.328125 125.203125 185.558594 125.59375 185.75 C 125.980469 185.945312 126.386719 186.101562 126.804688 186.214844 C 127.222656 186.328125 127.648438 186.402344 128.082031 186.433594 C 128.515625 186.460938 128.949219 186.449219 129.378906 186.394531 C 129.808594 186.339844 130.230469 186.242188 130.644531 186.105469 C 131.054688 185.96875 131.449219 185.789062 131.828125 185.574219 C 132.203125 185.359375 132.554688 185.109375 132.882812 184.824219 C 133.210938 184.535156 133.507812 184.222656 133.773438 183.878906 C 134.039062 183.535156 134.269531 183.167969 134.460938 182.777344 C 134.65625 182.390625 134.808594 181.984375 134.921875 181.566406 C 135.035156 181.144531 135.105469 180.71875 135.136719 180.285156 C 135.167969 179.851562 135.152344 179.417969 135.097656 178.988281 C 135.042969 178.558594 134.945312 178.136719 134.804688 177.722656 C 134.667969 177.3125 134.492188 176.917969 134.273438 176.539062 C 134.058594 176.164062 133.808594 175.8125 133.527344 175.484375 C 133.242188 175.160156 132.929688 174.863281 132.585938 174.597656 C 132.246094 174.332031 131.878906 174.101562 131.492188 173.910156 C 131.105469 173.714844 130.703125 173.5625 130.285156 173.449219 C 129.867188 173.332031 129.445312 173.261719 129.011719 173.230469 C 128.578125 173.199219 128.148438 173.210938 127.71875 173.265625 C 127.289062 173.320312 126.871094 173.417969 126.460938 173.554688 C 126.050781 173.691406 125.65625 173.867188 125.28125 174.082031 Z M 125.28125 174.082031 " fill-opacity="1" fill-rule="nonzero"/><path fill="#fa8ca1" d="M 240.65625 324.617188 C 241.085938 324.558594 241.503906 324.460938 241.914062 324.320312 C 242.324219 324.179688 242.714844 324 243.089844 323.78125 C 243.460938 323.5625 243.8125 323.3125 244.136719 323.027344 C 244.460938 322.738281 244.753906 322.425781 245.015625 322.078125 C 245.277344 321.734375 245.503906 321.367188 245.695312 320.980469 C 245.886719 320.589844 246.035156 320.1875 246.148438 319.769531 C 246.257812 319.351562 246.328125 318.925781 246.351562 318.492188 C 246.378906 318.0625 246.367188 317.628906 246.308594 317.203125 C 246.25 316.773438 246.152344 316.351562 246.011719 315.945312 C 245.871094 315.535156 245.691406 315.140625 245.476562 314.765625 C 245.257812 314.394531 245.007812 314.042969 244.722656 313.71875 C 244.433594 313.394531 244.121094 313.101562 243.777344 312.835938 C 243.433594 312.574219 243.066406 312.347656 242.679688 312.15625 C 242.289062 311.964844 241.886719 311.816406 241.46875 311.703125 C 241.050781 311.59375 240.625 311.523438 240.195312 311.496094 C 239.761719 311.46875 239.332031 311.484375 238.902344 311.539062 C 238.472656 311.597656 238.054688 311.695312 237.644531 311.835938 C 237.238281 311.976562 236.84375 312.15625 236.46875 312.371094 C 236.097656 312.589844 235.746094 312.839844 235.421875 313.125 C 235.097656 313.414062 234.804688 313.726562 234.539062 314.070312 C 234.277344 314.414062 234.050781 314.78125 233.859375 315.167969 C 233.667969 315.558594 233.519531 315.960938 233.40625 316.378906 C 233.296875 316.796875 233.226562 317.222656 233.199219 317.65625 C 233.171875 318.085938 233.183594 318.519531 233.242188 318.949219 C 233.300781 319.378906 233.398438 319.796875 233.539062 320.207031 C 233.675781 320.617188 233.855469 321.011719 234.074219 321.386719 C 234.289062 321.761719 234.542969 322.113281 234.828125 322.4375 C 235.113281 322.761719 235.429688 323.058594 235.773438 323.320312 C 236.117188 323.585938 236.484375 323.8125 236.875 324.003906 C 237.265625 324.191406 237.667969 324.34375 238.085938 324.457031 C 238.503906 324.566406 238.929688 324.636719 239.363281 324.664062 C 239.796875 324.691406 240.226562 324.675781 240.65625 324.617188 Z M 240.65625 324.617188 " fill-opacity="1" fill-rule="nonzero"/><path fill="#fa8ca1" d="M 223.476562 309.859375 C 223.417969 309.429688 223.320312 309.011719 223.179688 308.601562 C 223.039062 308.191406 222.859375 307.800781 222.640625 307.425781 C 222.425781 307.050781 222.171875 306.703125 221.886719 306.378906 C 221.601562 306.054688 221.285156 305.761719 220.941406 305.496094 C 220.597656 305.234375 220.230469 305.007812 219.84375 304.816406 C 219.453125 304.628906 219.050781 304.476562 218.632812 304.367188 C 218.214844 304.253906 217.789062 304.1875 217.359375 304.160156 C 216.925781 304.132812 216.496094 304.148438 216.066406 304.203125 C 215.636719 304.261719 215.21875 304.359375 214.808594 304.5 C 214.402344 304.640625 214.007812 304.820312 213.636719 305.039062 C 213.261719 305.253906 212.910156 305.507812 212.585938 305.792969 C 212.261719 306.078125 211.96875 306.394531 211.707031 306.738281 C 211.445312 307.082031 211.21875 307.449219 211.027344 307.835938 C 210.835938 308.226562 210.683594 308.628906 210.574219 309.046875 C 210.460938 309.464844 210.394531 309.890625 210.367188 310.324219 C 210.339844 310.753906 210.355469 311.1875 210.410156 311.613281 C 210.46875 312.042969 210.566406 312.464844 210.707031 312.875 C 210.847656 313.28125 211.023438 313.675781 211.242188 314.050781 C 211.457031 314.425781 211.710938 314.773438 211.996094 315.097656 C 212.28125 315.425781 212.59375 315.71875 212.9375 315.980469 C 213.28125 316.246094 213.648438 316.472656 214.035156 316.664062 C 214.425781 316.851562 214.828125 317.003906 215.246094 317.117188 C 215.664062 317.226562 216.089844 317.296875 216.519531 317.324219 C 216.953125 317.351562 217.382812 317.339844 217.8125 317.28125 C 218.242188 317.222656 218.660156 317.125 219.070312 316.984375 C 219.480469 316.84375 219.871094 316.664062 220.246094 316.445312 C 220.621094 316.226562 220.96875 315.976562 221.292969 315.6875 C 221.621094 315.402344 221.914062 315.085938 222.175781 314.742188 C 222.4375 314.398438 222.664062 314.03125 222.855469 313.640625 C 223.046875 313.253906 223.199219 312.847656 223.308594 312.429688 C 223.421875 312.011719 223.492188 311.585938 223.519531 311.152344 C 223.546875 310.722656 223.53125 310.289062 223.476562 309.859375 Z M 223.476562 309.859375 " fill-opacity="1" fill-rule="nonzero"/><path fill="#fa8ca1" d="M 229.328125 329.425781 C 229.269531 328.996094 229.171875 328.578125 229.03125 328.167969 C 228.890625 327.757812 228.710938 327.367188 228.496094 326.992188 C 228.277344 326.617188 228.027344 326.269531 227.738281 325.945312 C 227.453125 325.621094 227.136719 325.324219 226.792969 325.0625 C 226.449219 324.800781 226.082031 324.574219 225.695312 324.382812 C 225.308594 324.195312 224.902344 324.042969 224.484375 323.933594 C 224.066406 323.820312 223.640625 323.753906 223.210938 323.726562 C 222.777344 323.699219 222.347656 323.710938 221.921875 323.769531 C 221.492188 323.828125 221.070312 323.925781 220.664062 324.066406 C 220.253906 324.207031 219.863281 324.386719 219.488281 324.601562 C 219.113281 324.820312 218.765625 325.074219 218.441406 325.359375 C 218.113281 325.644531 217.820312 325.960938 217.558594 326.304688 C 217.296875 326.648438 217.070312 327.015625 216.878906 327.402344 C 216.6875 327.792969 216.539062 328.195312 216.425781 328.613281 C 216.316406 329.03125 216.246094 329.457031 216.21875 329.890625 C 216.191406 330.320312 216.207031 330.75 216.265625 331.179688 C 216.320312 331.609375 216.417969 332.03125 216.558594 332.4375 C 216.699219 332.847656 216.878906 333.242188 217.09375 333.617188 C 217.3125 333.992188 217.5625 334.339844 217.847656 334.664062 C 218.132812 334.992188 218.449219 335.285156 218.792969 335.546875 C 219.136719 335.808594 219.5 336.039062 219.890625 336.226562 C 220.277344 336.417969 220.679688 336.570312 221.097656 336.683594 C 221.515625 336.792969 221.941406 336.863281 222.375 336.890625 C 222.804688 336.917969 223.234375 336.902344 223.664062 336.847656 C 224.09375 336.789062 224.515625 336.691406 224.925781 336.550781 C 225.335938 336.410156 225.726562 336.234375 226.101562 336.015625 C 226.476562 335.796875 226.828125 335.546875 227.152344 335.257812 C 227.476562 334.972656 227.769531 334.65625 228.035156 334.3125 C 228.296875 333.96875 228.523438 333.601562 228.714844 333.210938 C 228.90625 332.820312 229.058594 332.417969 229.167969 332 C 229.277344 331.578125 229.347656 331.152344 229.375 330.71875 C 229.402344 330.289062 229.386719 329.855469 229.328125 329.425781 Z M 229.328125 329.425781 " fill-opacity="1" fill-rule="nonzero"/><path fill="#fa8ca1" d="M 151.78125 132.304688 L 148.539062 129.488281 L 11.65625 10.71875 C 11.480469 10.605469 11.296875 10.507812 11.105469 10.425781 L 10.8125 10.425781 C 10.609375 10.402344 10.402344 10.402344 10.195312 10.425781 C 10.132812 10.4375 10.070312 10.4375 10.007812 10.425781 L 9.902344 10.425781 C 9.734375 10.441406 9.566406 10.476562 9.40625 10.53125 L 9.183594 10.53125 C 9.03125 10.609375 8.886719 10.699219 8.753906 10.804688 L 8.597656 10.941406 C 8.464844 11.082031 8.351562 11.238281 8.257812 11.40625 C 8.25 11.445312 8.25 11.488281 8.257812 11.527344 L 8.257812 11.648438 C 8.171875 11.828125 8.109375 12.019531 8.066406 12.214844 L 8.066406 12.523438 L 0.617188 186.453125 C 0.59375 186.957031 0.710938 187.425781 0.964844 187.863281 C 1.222656 188.300781 1.574219 188.628906 2.027344 188.855469 C 2.359375 189.023438 2.714844 189.117188 3.089844 189.132812 C 3.734375 189.164062 4.308594 188.976562 4.804688 188.566406 L 44.796875 156.699219 C 44.882812 156.699219 44.933594 156.542969 45.019531 156.476562 L 45.226562 156.253906 C 45.332031 156.109375 45.417969 155.957031 45.484375 155.789062 C 45.527344 155.734375 45.570312 155.675781 45.605469 155.617188 L 57.621094 125.023438 L 87.878906 140.054688 C 87.980469 140.097656 88.082031 140.128906 88.1875 140.15625 L 88.324219 140.15625 C 88.515625 140.183594 88.703125 140.183594 88.890625 140.15625 L 89.234375 140.15625 L 148.347656 136.722656 L 150.324219 136.601562 C 150.847656 136.578125 151.316406 136.40625 151.738281 136.09375 C 152.15625 135.777344 152.453125 135.371094 152.621094 134.875 C 152.792969 134.378906 152.808594 133.878906 152.671875 133.371094 C 152.535156 132.867188 152.265625 132.441406 151.867188 132.101562 Z M 151.78125 132.304688 " fill-opacity="1" fill-rule="nonzero"/><path fill="#231f20" d="M 154.855469 116.261719 L 10.09375 0.242188 C 9.914062 0.128906 9.726562 0.0351562 9.527344 -0.0351562 L 9.234375 -0.0351562 C 9.027344 -0.0585938 8.824219 -0.0585938 8.617188 -0.0351562 L 8.308594 -0.0351562 C 8.136719 -0.0117188 7.972656 0.03125 7.808594 0.0859375 L 7.585938 0.0859375 C 7.4375 0.167969 7.300781 0.265625 7.175781 0.378906 C 7.125 0.417969 7.078125 0.464844 7.039062 0.515625 C 6.902344 0.660156 6.792969 0.820312 6.710938 0.996094 L 6.710938 1.21875 C 6.640625 1.40625 6.59375 1.601562 6.574219 1.804688 C 6.566406 1.839844 6.566406 1.871094 6.574219 1.90625 L 6.574219 176.078125 C 6.574219 176.582031 6.707031 177.046875 6.980469 177.472656 C 7.25 177.898438 7.613281 178.214844 8.074219 178.425781 C 8.53125 178.636719 9.011719 178.707031 9.507812 178.636719 C 10.007812 178.566406 10.449219 178.363281 10.832031 178.035156 L 48.882812 144.8125 C 48.957031 144.742188 49.023438 144.667969 49.089844 144.589844 L 49.296875 144.347656 C 49.390625 144.199219 49.46875 144.046875 49.535156 143.882812 C 49.578125 143.832031 49.613281 143.777344 49.636719 143.710938 L 60.46875 112.671875 L 91.363281 126.414062 L 91.671875 126.515625 L 91.828125 126.515625 C 92.015625 126.535156 92.207031 126.535156 92.394531 126.515625 L 92.667969 126.515625 L 153.566406 120.640625 C 154.085938 120.589844 154.550781 120.394531 154.953125 120.058594 C 155.355469 119.726562 155.632812 119.304688 155.78125 118.804688 C 155.882812 118.328125 155.847656 117.859375 155.679688 117.402344 C 155.511719 116.941406 155.238281 116.5625 154.855469 116.261719 Z M 60.882812 107.210938 L 24.390625 29.90625 L 85.011719 118.015625 Z M 47.492188 134.214844 L 18.863281 30.320312 L 56.160156 109.339844 Z M 11.054688 170.648438 L 11.054688 21.300781 L 44.300781 141.976562 Z M 93.613281 121.433594 L 20.578125 15.289062 L 146.753906 116.398438 Z M 93.613281 121.433594 " fill-opacity="1" fill-rule="nonzero"/><path fill="#231f20" d="M 336.039062 352.597656 L 335.867188 352.050781 C 329.925781 332.261719 319.097656 317.074219 305.398438 309.308594 C 290.382812 300.722656 272.496094 299.089844 256.894531 298.144531 C 223.992188 296.167969 192.527344 292.714844 169.476562 273.734375 C 180.394531 274.730469 190.914062 274.800781 199.582031 274.851562 L 203.632812 274.851562 C 213.710938 274.953125 232.46875 275.125 240.039062 263 C 245.632812 254.066406 243.472656 241.320312 234.890625 233.96875 L 234.613281 233.726562 C 231.339844 230.742188 227.5625 228.671875 223.285156 227.507812 C 210.019531 223.609375 196.941406 227.507812 188.136719 231.511719 C 188.875 228.171875 189.21875 224.792969 189.164062 221.375 C 188.941406 209.695312 185.730469 201.226562 179.808594 196.210938 C 173.890625 191.191406 164.792969 189.253906 156.019531 190.953125 C 148.039062 192.5 141.585938 196.863281 138.308594 202.976562 C 132.917969 213.007812 134.050781 227.421875 141.601562 244.667969 C 145.054688 252.578125 149.511719 259.875 154.972656 266.554688 C 137.277344 263.117188 120.457031 256.160156 111.15625 241.371094 C 106.003906 233.261719 105.800781 226.890625 105.457031 218.058594 C 105.25 204.867188 103.042969 192.015625 98.832031 179.511719 C 93.992188 164.695312 87.292969 150.773438 78.730469 137.75 C 78.542969 137.464844 78.308594 137.226562 78.027344 137.035156 C 77.742188 136.84375 77.433594 136.710938 77.097656 136.644531 C 76.765625 136.574219 76.429688 136.570312 76.09375 136.636719 C 75.757812 136.699219 75.445312 136.824219 75.160156 137.011719 C 74.875 137.203125 74.636719 137.4375 74.445312 137.71875 C 74.253906 138.003906 74.121094 138.3125 74.054688 138.648438 C 73.984375 138.980469 73.980469 139.316406 74.046875 139.652344 C 74.109375 139.988281 74.234375 140.300781 74.421875 140.585938 C 82.742188 153.21875 89.246094 166.726562 93.9375 181.109375 C 97.992188 193.15625 100.117188 205.539062 100.308594 218.25 C 100.683594 227.523438 100.957031 234.84375 106.792969 244.121094 C 118.261719 262.34375 139.40625 269.699219 160.585938 272.703125 C 185.25 297.097656 220.042969 301.097656 256.515625 303.296875 C 271.535156 304.191406 288.734375 305.824219 302.859375 313.792969 C 315.390625 320.90625 325.359375 335.007812 330.921875 353.542969 L 331.109375 354.164062 C 333.003906 360.171875 334.191406 366.316406 334.679688 372.59375 C 334.707031 372.917969 334.789062 373.226562 334.925781 373.515625 C 335.066406 373.808594 335.257812 374.0625 335.492188 374.285156 C 335.730469 374.503906 336 374.671875 336.300781 374.789062 C 336.601562 374.90625 336.914062 374.964844 337.238281 374.964844 L 337.445312 374.964844 C 337.785156 374.9375 338.105469 374.84375 338.410156 374.691406 C 338.710938 374.535156 338.972656 374.328125 339.195312 374.070312 C 339.417969 373.808594 339.582031 373.519531 339.6875 373.195312 C 339.796875 372.871094 339.835938 372.539062 339.8125 372.199219 C 339.304688 365.523438 338.046875 358.988281 336.039062 352.597656 Z M 146.390625 242.660156 C 141.585938 231.699219 137.070312 216.34375 142.960938 205.484375 C 145.5 200.761719 150.664062 197.34375 157.121094 196.089844 C 164.414062 194.699219 171.878906 196.277344 176.617188 200.246094 C 181.355469 204.214844 183.945312 211.429688 184.136719 221.5625 C 184.210938 226.441406 183.382812 231.160156 181.648438 235.71875 C 181.453125 236.226562 181.421875 236.742188 181.558594 237.269531 C 181.691406 237.796875 181.960938 238.238281 182.375 238.589844 C 182.785156 238.945312 183.261719 239.148438 183.800781 239.203125 C 184.339844 239.253906 184.847656 239.148438 185.320312 238.878906 C 192.753906 234.671875 207.375 228.246094 221.964844 232.542969 C 225.503906 233.496094 228.621094 235.214844 231.320312 237.695312 L 231.628906 237.953125 C 238.203125 243.691406 240.003906 253.53125 235.730469 260.371094 C 229.671875 270.042969 212.800781 269.886719 203.71875 269.800781 L 199.667969 269.800781 C 187.417969 269.902344 175.207031 269.238281 163.042969 267.808594 C 155.996094 260.390625 150.445312 251.988281 146.390625 242.589844 Z M 146.390625 242.660156 " fill-opacity="1" fill-rule="nonzero"/><path fill="#231f20" d="M 272.015625 313.929688 C 271.847656 313.902344 271.683594 313.910156 271.515625 313.949219 C 271.351562 313.984375 271.199219 314.054688 271.0625 314.152344 C 270.925781 314.25 270.808594 314.371094 270.71875 314.515625 C 270.628906 314.65625 270.570312 314.8125 270.539062 314.980469 C 270.511719 315.148438 270.519531 315.316406 270.558594 315.484375 C 270.597656 315.652344 270.664062 315.804688 270.765625 315.945312 C 270.863281 316.085938 270.988281 316.199219 271.132812 316.292969 C 271.277344 316.382812 271.433594 316.445312 271.601562 316.472656 C 273.105469 316.710938 274.597656 317.007812 276.074219 317.371094 C 277.550781 317.730469 279.011719 318.152344 280.453125 318.636719 C 281.898438 319.121094 283.316406 319.664062 284.714844 320.265625 C 286.109375 320.867188 287.480469 321.527344 288.824219 322.246094 C 290.164062 322.960938 291.472656 323.734375 292.75 324.5625 C 294.027344 325.386719 295.269531 326.265625 296.472656 327.199219 C 297.675781 328.128906 298.839844 329.105469 299.960938 330.136719 C 301.085938 331.164062 302.164062 332.238281 303.195312 333.355469 C 304.226562 334.472656 305.210938 335.632812 306.144531 336.832031 C 307.082031 338.035156 307.964844 339.269531 308.796875 340.546875 C 309.628906 341.820312 310.40625 343.128906 311.128906 344.46875 C 311.851562 345.808594 312.519531 347.175781 313.125 348.570312 C 313.734375 349.964844 314.285156 351.382812 314.773438 352.824219 C 315.261719 354.265625 315.691406 355.726562 316.058594 357.203125 C 316.429688 358.679688 316.734375 360.171875 316.976562 361.671875 C 317.21875 363.175781 317.398438 364.6875 317.515625 366.203125 C 317.527344 366.367188 317.570312 366.523438 317.640625 366.667969 C 317.710938 366.816406 317.804688 366.945312 317.925781 367.054688 C 318.042969 367.164062 318.179688 367.25 318.332031 367.308594 C 318.484375 367.363281 318.640625 367.394531 318.804688 367.390625 L 318.90625 367.390625 C 319.078125 367.375 319.242188 367.332031 319.394531 367.253906 C 319.546875 367.175781 319.679688 367.070312 319.789062 366.941406 C 319.898438 366.808594 319.980469 366.664062 320.035156 366.5 C 320.085938 366.335938 320.105469 366.167969 320.09375 366 C 319.96875 364.410156 319.78125 362.828125 319.527344 361.253906 C 319.273438 359.679688 318.953125 358.121094 318.566406 356.574219 C 318.183594 355.027344 317.734375 353.5 317.222656 351.992188 C 316.707031 350.484375 316.132812 348.996094 315.496094 347.535156 C 314.859375 346.074219 314.164062 344.644531 313.40625 343.242188 C 312.652344 341.839844 311.835938 340.46875 310.964844 339.136719 C 310.09375 337.800781 309.171875 336.507812 308.191406 335.25 C 307.210938 333.992188 306.183594 332.777344 305.101562 331.609375 C 304.019531 330.4375 302.894531 329.3125 301.71875 328.238281 C 300.542969 327.160156 299.328125 326.136719 298.066406 325.160156 C 296.804688 324.1875 295.507812 323.265625 294.171875 322.402344 C 292.832031 321.535156 291.460938 320.726562 290.058594 319.976562 C 288.652344 319.226562 287.21875 318.535156 285.757812 317.902344 C 284.292969 317.273438 282.808594 316.703125 281.296875 316.199219 C 279.789062 315.691406 278.261719 315.25 276.710938 314.871094 C 275.164062 314.492188 273.605469 314.179688 272.03125 313.929688 Z M 272.015625 313.929688 " fill-opacity="1" fill-rule="nonzero"/><path fill="#231f20" d="M 89.234375 228.710938 C 88.566406 224.929688 88.308594 221.121094 88.464844 217.285156 C 88.601562 212.140625 88.292969 207.023438 87.535156 201.929688 C 86.421875 194.441406 84.417969 187.199219 81.527344 180.199219 C 81.464844 180.039062 81.371094 179.902344 81.246094 179.78125 C 81.125 179.660156 80.984375 179.566406 80.828125 179.5 C 80.667969 179.4375 80.503906 179.402344 80.332031 179.402344 C 80.160156 179.402344 79.996094 179.4375 79.839844 179.503906 C 79.679688 179.570312 79.539062 179.664062 79.417969 179.785156 C 79.300781 179.90625 79.207031 180.046875 79.140625 180.207031 C 79.074219 180.363281 79.042969 180.527344 79.042969 180.699219 C 79.042969 180.871094 79.078125 181.039062 79.144531 181.195312 C 81.980469 188.015625 83.957031 195.074219 85.066406 202.375 C 85.796875 207.335938 86.09375 212.324219 85.957031 217.339844 C 85.804688 221.347656 86.078125 225.328125 86.78125 229.277344 C 88.753906 239.1875 94.4375 248.636719 103.707031 257.347656 C 103.828125 257.464844 103.964844 257.554688 104.125 257.621094 C 104.28125 257.683594 104.445312 257.714844 104.613281 257.714844 C 104.785156 257.714844 104.949219 257.683594 105.105469 257.621094 C 105.261719 257.554688 105.402344 257.464844 105.523438 257.347656 C 105.644531 257.226562 105.738281 257.085938 105.804688 256.929688 C 105.867188 256.769531 105.902344 256.605469 105.902344 256.4375 C 105.902344 256.265625 105.867188 256.101562 105.804688 255.945312 C 105.738281 255.785156 105.644531 255.644531 105.523438 255.527344 C 96.597656 247.058594 91.175781 238.089844 89.234375 228.710938 Z M 89.234375 228.710938 " fill-opacity="1" fill-rule="nonzero"/><path fill="#fa8ca1" d="M 116.542969 165.390625 C 116.328125 165.011719 116.078125 164.660156 115.796875 164.332031 C 115.511719 164.003906 115.199219 163.703125 114.855469 163.4375 C 114.511719 163.171875 114.148438 162.941406 113.757812 162.746094 C 113.371094 162.550781 112.964844 162.394531 112.546875 162.28125 C 112.128906 162.164062 111.703125 162.09375 111.269531 162.0625 C 110.835938 162.03125 110.40625 162.042969 109.972656 162.097656 C 109.542969 162.152344 109.121094 162.246094 108.707031 162.382812 C 108.296875 162.519531 107.902344 162.699219 107.523438 162.914062 C 107.148438 163.128906 106.792969 163.378906 106.464844 163.664062 C 106.140625 163.949219 105.839844 164.261719 105.574219 164.605469 C 105.308594 164.949219 105.078125 165.316406 104.886719 165.703125 C 104.691406 166.09375 104.539062 166.496094 104.421875 166.917969 C 104.308594 167.335938 104.234375 167.761719 104.207031 168.195312 C 104.175781 168.628906 104.1875 169.0625 104.242188 169.492188 C 104.296875 169.925781 104.394531 170.347656 104.53125 170.757812 C 104.671875 171.171875 104.847656 171.566406 105.0625 171.941406 C 105.277344 172.320312 105.527344 172.671875 105.8125 173 C 106.097656 173.328125 106.414062 173.625 106.757812 173.890625 C 107.101562 174.15625 107.46875 174.386719 107.855469 174.582031 C 108.246094 174.773438 108.648438 174.925781 109.070312 175.042969 C 109.488281 175.15625 109.914062 175.226562 110.347656 175.257812 C 110.78125 175.285156 111.210938 175.273438 111.644531 175.21875 C 112.074219 175.160156 112.496094 175.066406 112.90625 174.925781 C 113.320312 174.789062 113.710938 174.609375 114.089844 174.394531 C 114.464844 174.175781 114.816406 173.925781 115.140625 173.644531 C 115.46875 173.359375 115.761719 173.042969 116.027344 172.703125 C 116.292969 172.359375 116.519531 171.996094 116.710938 171.605469 C 116.90625 171.21875 117.058594 170.816406 117.171875 170.398438 C 117.285156 169.980469 117.359375 169.558594 117.390625 169.125 C 117.421875 168.691406 117.410156 168.261719 117.355469 167.832031 C 117.300781 167.402344 117.207031 166.984375 117.070312 166.574219 C 116.933594 166.160156 116.757812 165.769531 116.542969 165.390625 Z M 116.542969 165.390625 " fill-opacity="1" fill-rule="nonzero"/><path fill="#fa8ca1" d="M 109.335938 186.863281 C 108.957031 187.078125 108.605469 187.328125 108.277344 187.613281 C 107.949219 187.898438 107.652344 188.210938 107.386719 188.554688 C 107.121094 188.898438 106.890625 189.261719 106.695312 189.652344 C 106.5 190.039062 106.347656 190.441406 106.230469 190.863281 C 106.117188 191.28125 106.042969 191.707031 106.011719 192.140625 C 105.980469 192.574219 105.992188 193.003906 106.046875 193.4375 C 106.101562 193.867188 106.195312 194.289062 106.335938 194.699219 C 106.472656 195.113281 106.648438 195.507812 106.863281 195.882812 C 107.078125 196.261719 107.324219 196.613281 107.609375 196.941406 C 107.894531 197.269531 108.207031 197.570312 108.550781 197.835938 C 108.894531 198.101562 109.257812 198.332031 109.648438 198.527344 C 110.035156 198.71875 110.4375 198.875 110.855469 198.988281 C 111.273438 199.105469 111.699219 199.175781 112.132812 199.207031 C 112.566406 199.238281 112.996094 199.226562 113.429688 199.175781 C 113.859375 199.121094 114.28125 199.023438 114.691406 198.886719 C 115.101562 198.75 115.496094 198.574219 115.875 198.359375 C 116.25 198.144531 116.605469 197.894531 116.933594 197.609375 C 117.261719 197.324219 117.558594 197.011719 117.824219 196.667969 C 118.089844 196.324219 118.320312 195.960938 118.515625 195.570312 C 118.707031 195.183594 118.863281 194.78125 118.976562 194.359375 C 119.09375 193.941406 119.164062 193.515625 119.195312 193.082031 C 119.226562 192.648438 119.214844 192.21875 119.160156 191.785156 C 119.105469 191.355469 119.011719 190.933594 118.875 190.523438 C 118.738281 190.109375 118.5625 189.714844 118.347656 189.339844 C 118.128906 188.960938 117.878906 188.609375 117.597656 188.28125 C 117.3125 187.957031 116.996094 187.660156 116.65625 187.394531 C 116.3125 187.128906 115.945312 186.898438 115.558594 186.703125 C 115.171875 186.507812 114.769531 186.355469 114.351562 186.242188 C 113.933594 186.125 113.507812 186.054688 113.074219 186.023438 C 112.640625 185.992188 112.210938 186 111.78125 186.054688 C 111.351562 186.109375 110.929688 186.203125 110.519531 186.339844 C 110.105469 186.476562 109.710938 186.652344 109.335938 186.863281 Z M 109.335938 186.863281 " fill-opacity="1" fill-rule="nonzero"/><path fill="#fa8ca1" d="M 125.28125 174.082031 C 124.902344 174.296875 124.550781 174.546875 124.222656 174.832031 C 123.890625 175.117188 123.59375 175.429688 123.328125 175.773438 C 123.0625 176.117188 122.832031 176.484375 122.636719 176.871094 C 122.441406 177.261719 122.285156 177.664062 122.171875 178.082031 C 122.058594 178.503906 121.984375 178.929688 121.953125 179.363281 C 121.921875 179.796875 121.933594 180.226562 121.988281 180.660156 C 122.042969 181.089844 122.136719 181.511719 122.273438 181.925781 C 122.410156 182.335938 122.589844 182.734375 122.804688 183.109375 C 123.019531 183.488281 123.269531 183.839844 123.554688 184.167969 C 123.835938 184.496094 124.152344 184.792969 124.496094 185.0625 C 124.839844 185.328125 125.203125 185.558594 125.59375 185.75 C 125.980469 185.945312 126.386719 186.101562 126.804688 186.214844 C 127.222656 186.328125 127.648438 186.402344 128.082031 186.433594 C 128.515625 186.460938 128.949219 186.449219 129.378906 186.394531 C 129.808594 186.339844 130.230469 186.242188 130.644531 186.105469 C 131.054688 185.96875 131.449219 185.789062 131.828125 185.574219 C 132.203125 185.359375 132.554688 185.109375 132.882812 184.824219 C 133.210938 184.535156 133.507812 184.222656 133.773438 183.878906 C 134.039062 183.535156 134.269531 183.167969 134.460938 182.777344 C 134.65625 182.390625 134.808594 181.984375 134.921875 181.566406 C 135.035156 181.144531 135.105469 180.71875 135.136719 180.285156 C 135.167969 179.851562 135.152344 179.417969 135.097656 178.988281 C 135.042969 178.558594 134.945312 178.136719 134.804688 177.722656 C 134.667969 177.3125 134.492188 176.917969 134.273438 176.539062 C 134.058594 176.164062 133.808594 175.8125 133.527344 175.484375 C 133.242188 175.160156 132.929688 174.863281 132.585938 174.597656 C 132.246094 174.332031 131.878906 174.101562 131.492188 173.910156 C 131.105469 173.714844 130.703125 173.5625 130.285156 173.449219 C 129.867188 173.332031 129.445312 173.261719 129.011719 173.230469 C 128.578125 173.199219 128.148438 173.210938 127.71875 173.265625 C 127.289062 173.320312 126.871094 173.417969 126.460938 173.554688 C 126.050781 173.691406 125.65625 173.867188 125.28125 174.082031 Z M 125.28125 174.082031 " fill-opacity="1" fill-rule="nonzero"/><path fill="#fa8ca1" d="M 240.65625 324.617188 C 241.085938 324.558594 241.503906 324.460938 241.914062 324.320312 C 242.324219 324.179688 242.714844 324 243.089844 323.78125 C 243.460938 323.5625 243.8125 323.3125 244.136719 323.027344 C 244.460938 322.738281 244.753906 322.425781 245.015625 322.078125 C 245.277344 321.734375 245.503906 321.367188 245.695312 320.980469 C 245.886719 320.589844 246.035156 320.1875 246.148438 319.769531 C 246.257812 319.351562 246.328125 318.925781 246.351562 318.492188 C 246.378906 318.0625 246.367188 317.628906 246.308594 317.203125 C 246.25 316.773438 246.152344 316.351562 246.011719 315.945312 C 245.871094 315.535156 245.691406 315.140625 245.476562 314.765625 C 245.257812 314.394531 245.007812 314.042969 244.722656 313.71875 C 244.433594 313.394531 244.121094 313.101562 243.777344 312.835938 C 243.433594 312.574219 243.066406 312.347656 242.679688 312.15625 C 242.289062 311.964844 241.886719 311.816406 241.46875 311.703125 C 241.050781 311.59375 240.625 311.523438 240.195312 311.496094 C 239.761719 311.46875 239.332031 311.484375 238.902344 311.539062 C 238.472656 311.597656 238.054688 311.695312 237.644531 311.835938 C 237.238281 311.976562 236.84375 312.15625 236.46875 312.371094 C 236.097656 312.589844 235.746094 312.839844 235.421875 313.125 C 235.097656 313.414062 234.804688 313.726562 234.539062 314.070312 C 234.277344 314.414062 234.050781 314.78125 233.859375 315.167969 C 233.667969 315.558594 233.519531 315.960938 233.40625 316.378906 C 233.296875 316.796875 233.226562 317.222656 233.199219 317.65625 C 233.171875 318.085938 233.183594 318.519531 233.242188 318.949219 C 233.300781 319.378906 233.398438 319.796875 233.539062 320.207031 C 233.675781 320.617188 233.855469 321.011719 234.074219 321.386719 C 234.289062 321.761719 234.542969 322.113281 234.828125 322.4375 C 235.113281 322.761719 235.429688 323.058594 235.773438 323.320312 C 236.117188 323.585938 236.484375 323.8125 236.875 324.003906 C 237.265625 324.191406 237.667969 324.34375 238.085938 324.457031 C 238.503906 324.566406 238.929688 324.636719 239.363281 324.664062 C 239.796875 324.691406 240.226562 324.675781 240.65625 324.617188 Z M 240.65625 324.617188 " fill-opacity="1" fill-rule="nonzero"/><path fill="#fa8ca1" d="M 223.476562 309.859375 C 223.417969 309.429688 223.320312 309.011719 223.179688 308.601562 C 223.039062 308.191406 222.859375 307.800781 222.640625 307.425781 C 222.425781 307.050781 222.171875 306.703125 221.886719 306.378906 C 221.601562 306.054688 221.285156 305.761719 220.941406 305.496094 C 220.597656 305.234375 220.230469 305.007812 219.84375 304.816406 C 219.453125 304.628906 219.050781 304.476562 218.632812 304.367188 C 218.214844 304.253906 217.789062 304.1875 217.359375 304.160156 C 216.925781 304.132812 216.496094 304.148438 216.066406 304.203125 C 215.636719 304.261719 215.21875 304.359375 214.808594 304.5 C 214.402344 304.640625 214.007812 304.820312 213.636719 305.039062 C 213.261719 305.253906 212.910156 305.507812 212.585938 305.792969 C 212.261719 306.078125 211.96875 306.394531 211.707031 306.738281 C 211.445312 307.082031 211.21875 307.449219 211.027344 307.835938 C 210.835938 308.226562 210.683594 308.628906 210.574219 309.046875 C 210.460938 309.464844 210.394531 309.890625 210.367188 310.324219 C 210.339844 310.753906 210.355469 311.1875 210.410156 311.613281 C 210.46875 312.042969 210.566406 312.464844 210.707031 312.875 C 210.847656 313.28125 211.023438 313.675781 211.242188 314.050781 C 211.457031 314.425781 211.710938 314.773438 211.996094 315.097656 C 212.28125 315.425781 212.59375 315.71875 212.9375 315.980469 C 213.28125 316.246094 213.648438 316.472656 214.035156 316.664062 C 214.425781 316.851562 214.828125 317.003906 215.246094 317.117188 C 215.664062 317.226562 216.089844 317.296875 216.519531 317.324219 C 216.953125 317.351562 217.382812 317.339844 217.8125 317.28125 C 218.242188 317.222656 218.660156 317.125 219.070312 316.984375 C 219.480469 316.84375 219.871094 316.664062 220.246094 316.445312 C 220.621094 316.226562 220.96875 315.976562 221.292969 315.6875 C 221.621094 315.402344 221.914062 315.085938 222.175781 314.742188 C 222.4375 314.398438 222.664062 314.03125 222.855469 313.640625 C 223.046875 313.253906 223.199219 312.847656 223.308594 312.429688 C 223.421875 312.011719 223.492188 311.585938 223.519531 311.152344 C 223.546875 310.722656 223.53125 310.289062 223.476562 309.859375 Z M 223.476562 309.859375 " fill-opacity="1" fill-rule="nonzero"/><path fill="#fa8ca1" d="M 229.328125 329.425781 C 229.269531 328.996094 229.171875 328.578125 229.03125 328.167969 C 228.890625 327.757812 228.710938 327.367188 228.496094 326.992188 C 228.277344 326.617188 228.027344 326.269531 227.738281 325.945312 C 227.453125 325.621094 227.136719 325.324219 226.792969 325.0625 C 226.449219 324.800781 226.082031 324.574219 225.695312 324.382812 C 225.308594 324.195312 224.902344 324.042969 224.484375 323.933594 C 224.066406 323.820312 223.640625 323.753906 223.210938 323.726562 C 222.777344 323.699219 222.347656 323.710938 221.921875 323.769531 C 221.492188 323.828125 221.070312 323.925781 220.664062 324.066406 C 220.253906 324.207031 219.863281 324.386719 219.488281 324.601562 C 219.113281 324.820312 218.765625 325.074219 218.441406 325.359375 C 218.113281 325.644531 217.820312 325.960938 217.558594 326.304688 C 217.296875 326.648438 217.070312 327.015625 216.878906 327.402344 C 216.6875 327.792969 216.539062 328.195312 216.425781 328.613281 C 216.316406 329.03125 216.246094 329.457031 216.21875 329.890625 C 216.191406 330.320312 216.207031 330.75 216.265625 331.179688 C 216.320312 331.609375 216.417969 332.03125 216.558594 332.4375 C 216.699219 332.847656 216.878906 333.242188 217.09375 333.617188 C 217.3125 333.992188 217.5625 334.339844 217.847656 334.664062 C 218.132812 334.992188 218.449219 335.285156 218.792969 335.546875 C 219.136719 335.808594 219.5 336.039062 219.890625 336.226562 C 220.277344 336.417969 220.679688 336.570312 221.097656 336.683594 C 221.515625 336.792969 221.941406 336.863281 222.375 336.890625 C 222.804688 336.917969 223.234375 336.902344 223.664062 336.847656 C 224.09375 336.789062 224.515625 336.691406 224.925781 336.550781 C 225.335938 336.410156 225.726562 336.234375 226.101562 336.015625 C 226.476562 335.796875 226.828125 335.546875 227.152344 335.257812 C 227.476562 334.972656 227.769531 334.65625 228.035156 334.3125 C 228.296875 333.96875 228.523438 333.601562 228.714844 333.210938 C 228.90625 332.820312 229.058594 332.417969 229.167969 332 C 229.277344 331.578125 229.347656 331.152344 229.375 330.71875 C 229.402344 330.289062 229.386719 329.855469 229.328125 329.425781 Z M 229.328125 329.425781 " fill-opacity="1" fill-rule="nonzero"/></svg>